<svg width="200" height="190" viewBox="0 0 200 190" fill="none" xmlns="http://www.w3.org/2000/svg">
<path d="M4.85977 85.12C3.75442 84.5136 2.78304 83.6909 2.00375 82.7012C1.22445 81.7115 0.653273 80.5751 0.324382 79.36C-0.00450851 78.1449 -0.0843488 76.8761 0.0896387 75.6295C0.263626 74.3829 0.687865 73.1842 1.33697 72.105L15.6186 47.5C16.6659 45.6 18.2845 44.27 20.0935 43.51L94.6436 1.71C96.167 0.570001 98.0712 0 100.071 0C102.07 0 103.974 0.570001 105.498 1.71L180.714 43.89C182.523 44.84 184.047 46.36 184.904 48.26L198.709 72.2C201.375 76.76 199.756 82.555 195.282 85.12L185.76 90.63V137.75C185.76 141.36 183.761 144.495 180.714 146.11L105.498 188.29C103.974 189.43 102.07 190 100.071 190C98.0712 190 96.167 189.43 94.6436 188.29L19.427 146.11C17.9006 145.31 16.6232 144.107 15.7336 142.633C14.8439 141.159 14.3761 139.471 14.3809 137.75V85.12C11.5245 86.735 7.90652 86.83 4.85977 85.12ZM100.071 20.425V84.075L156.816 52.25L100.071 20.425ZM33.423 132.145L90.5496 164.255V100.51L33.423 68.495V132.145ZM166.718 132.145V101.555L119.113 129.105C115.971 130.815 112.448 130.72 109.592 129.2V164.255L166.718 132.145ZM117.685 107.92L177.477 73.435L171.955 63.84L112.162 98.325L117.685 107.92Z" fill="black"/>
</svg>
